<?xml version="1.0" encoding="utf-8"?>
<!-- Generator: Adobe Illustrator 24.3.0, SVG Export Plug-In . SVG Version: 6.00 Build 0)  -->
<svg version="1.1" id="Layer_1" xmlns="http://www.w3.org/2000/svg" xmlns:xlink="http://www.w3.org/1999/xlink" x="0px" y="0px"
	 viewBox="0 0 24 24" style="enable-background:new 0 0 24 24;" xml:space="preserve">
<style type="text/css">
	.st0{fill-rule:evenodd;clip-rule:evenodd;fill:#FFFFFF;}
</style>
<path class="st0" d="M12,10.1c-1,0-1.9-0.8-1.9-1.9S11,6.4,12,6.4s1.9,0.8,1.9,1.9S13,10.1,12,10.1 M12,5.4c-1.6,0-2.8,1.3-2.8,2.8
	c0,1.6,1.3,2.8,2.8,2.8s2.8-1.3,2.8-2.8S13.6,5.4,12,5.4 M5.4,7.9c0-3.3,3.1-6.2,6.6-6.2s6.6,2.9,6.6,6.2c0,3.2-2.4,7.1-6.6,13.6
	C7.8,14.9,5.4,11.1,5.4,7.9 M12,0.7c-3.9,0-7.5,3.2-7.5,7.1c0,3.9,3.3,8.6,7.5,15.4c4.2-6.7,7.5-11.4,7.5-15.4
	C19.5,3.9,15.9,0.7,12,0.7"/>
</svg>
