<?xml version="1.0" encoding="utf-8"?>
<!-- Generator: Adobe Illustrator 22.1.0, SVG Export Plug-In . SVG Version: 6.00 Build 0)  -->
<svg version="1.1" id="Layer_1" xmlns="http://www.w3.org/2000/svg" xmlns:xlink="http://www.w3.org/1999/xlink" x="0px" y="0px"
	 viewBox="0 0 200 50" style="enable-background:new 0 0 200 50;" xml:space="preserve">
<style type="text/css">
	.st0{fill:#1C1C1C;}
</style>
<g>
	<g>
		<path class="st0" d="M110.2,23.8L99,17c-1.1-0.7-2-0.2-2,1.1V32c0,1.3,0.9,1.8,2,1.1l11.2-6.8C111.3,25.5,111.3,24.5,110.2,23.8"
			/>
	</g>
	<g>
		<path class="st0" d="M110.2,23.8L99,17c-1.1-0.7-2-0.2-2,1.1V32c0,1.3,0.9,1.8,2,1.1l11.2-6.8C111.3,25.5,111.3,24.5,110.2,23.8"
			/>
	</g>
</g>
<g>
	<polygon class="st0" points="179,31.6 172.5,35 173.7,27.8 168.5,22.6 175.8,21.6 179,15 182.2,21.6 189.5,22.6 184.3,27.8 
		185.5,35 	"/>
</g>
<g>
	<rect x="17.5" y="33.3" class="st0" width="23.3" height="3.3"/>
	<rect x="14.2" y="26.7" class="st0" width="30" height="3.3"/>
	<rect x="14.2" y="20" class="st0" width="30" height="3.3"/>
	<rect x="17.5" y="13.3" class="st0" width="23.3" height="3.3"/>
</g>
</svg>
