<?xml version="1.0" encoding="utf-8"?>
<!-- Generator: Adobe Illustrator 15.0.0, SVG Export Plug-In . SVG Version: 6.00 Build 0)  -->
<!DOCTYPE svg PUBLIC "-//W3C//DTD SVG 1.1//EN" "http://www.w3.org/Graphics/SVG/1.1/DTD/svg11.dtd" [
	<!ENTITY ns_flows "http://ns.adobe.com/Flows/1.0/">
	<!ENTITY ns_extend "http://ns.adobe.com/Extensibility/1.0/">
	<!ENTITY ns_ai "http://ns.adobe.com/AdobeIllustrator/10.0/">
	<!ENTITY ns_graphs "http://ns.adobe.com/Graphs/1.0/">
]>
<svg version="1.1" id="Layer_1" xmlns:x="&ns_extend;" xmlns:i="&ns_ai;" xmlns:graph="&ns_graphs;"
	 xmlns="http://www.w3.org/2000/svg" xmlns:xlink="http://www.w3.org/1999/xlink" xmlns:a="http://ns.adobe.com/AdobeSVGViewerExtensions/3.0/"
	 x="0px" y="0px" width="200px" height="50px" viewBox="0 0 200 50" enable-background="new 0 0 200 50" xml:space="preserve">
<g>
	<g>
		<path fill="#FFFFFF" d="M106.2,23.8L95,17c-1.1-0.7-2-0.2-2,1.1v13.9c0,1.3,0.9,1.8,2,1.1l11.2-6.8
			C107.3,25.5,107.3,24.5,106.2,23.8"/>
	</g>
	<g>
		<path fill="#FFFFFF" d="M106.2,23.8L95,17c-1.1-0.7-2-0.2-2,1.1v13.9c0,1.3,0.9,1.8,2,1.1l11.2-6.8
			C107.3,25.5,107.3,24.5,106.2,23.8"/>
	</g>
</g>
<g>
	<polygon fill="#FFFFFF" points="175,31.6 168.5,35 169.7,27.8 164.5,22.6 171.8,21.6 175,15 178.2,21.6 185.5,22.6 180.3,27.8 
		181.5,35 	"/>
</g>
<g>
	<rect x="13.5" y="33.3" fill="#FFFFFF" width="23.3" height="3.3"/>
	<rect x="10.2" y="26.7" fill="#FFFFFF" width="30" height="3.3"/>
	<rect x="10.2" y="20" fill="#FFFFFF" width="30" height="3.3"/>
	<rect x="13.5" y="13.3" fill="#FFFFFF" width="23.3" height="3.3"/>
</g>
</svg>
