<?xml version="1.0" encoding="utf-8"?>
<!-- Generator: Adobe Illustrator 22.1.0, SVG Export Plug-In . SVG Version: 6.00 Build 0)  -->
<svg version="1.1" id="Capa_1" xmlns="http://www.w3.org/2000/svg" xmlns:xlink="http://www.w3.org/1999/xlink" x="0px" y="0px"
	 viewBox="0 0 289 98" style="enable-background:new 0 0 289 98;" xml:space="preserve">
<style type="text/css">
	.st0{fill:#010202;}
	.st1{fill:#FFCF02;}
	.st2{fill:url(#SVGID_1_);}
	.st3{filter:url(#Adobe_OpacityMaskFilter);}
	.st4{fill:url(#SVGID_3_);}
	.st5{mask:url(#SVGID_2_);fill:url(#SVGID_4_);}
	.st6{fill:url(#SVGID_5_);}
	.st7{fill:url(#SVGID_6_);}
	.st8{fill:url(#SVGID_7_);}
	.st9{fill:url(#SVGID_8_);}
	.st10{fill:url(#SVGID_9_);}
	.st11{fill:url(#SVGID_10_);}
	.st12{fill:url(#SVGID_11_);}
	.st13{fill:url(#SVGID_12_);}
	.st14{fill:url(#SVGID_13_);}
	.st15{fill:url(#SVGID_14_);}
	.st16{fill:url(#SVGID_15_);}
	.st17{fill:url(#SVGID_16_);}
	.st18{fill:url(#SVGID_17_);}
	.st19{fill:url(#SVGID_18_);}
	.st20{fill:#FFFFFF;}
	.st21{clip-path:url(#SVGID_20_);}
	.st22{filter:url(#Adobe_OpacityMaskFilter_1_);}
	.st23{fill:url(#SVGID_22_);}
	.st24{mask:url(#SVGID_21_);fill:url(#SVGID_23_);}
	.st25{fill:#020203;}
</style>
<g>
	<g>
		<g>
			<path class="st0" d="M243.7,39.5V43h-7.3v15.5h-4.9V43h-7.3v-3.5H243.7z"/>
			<path class="st0" d="M226.2,55v3.5h-15.7v-19h4.9V55H226.2z"/>
			<path class="st0" d="M131,55v3.5h-16.5v-19h16.2V43h-11.3v4.2h10.3v3.4h-10.3V55H131z"/>
			<g>
				<path class="st0" d="M105.6,51.4c2.1-1.1,3.4-3.4,3.4-5.8c0-2-0.6-3.5-1.8-4.5c-1.4-1.2-3.3-1.6-6.6-1.6H89.4l-0.2,1.1
					c0,0,0.2,0.3,0.4,0.8c0.4,0.6,0.3,0.8,0.3,1.2v15.9h4.9v-6.1c0,0,4.3,0,6.1,0l3.3,6.1h5.4L105.6,51.4z M103.1,48.4
					c-0.4,0.4-0.8,0.6-1.5,0.6h-6.7v-5.8h5.3c1.6,0,2.4,0.2,3,0.6c0.6,0.4,0.8,1.1,0.8,2.1C104,46.9,103.8,47.8,103.1,48.4z"/>
			</g>
		</g>
		<path class="st0" d="M151.7,39.5v12.6c-1.2-1.5-2.4-2.9-4.4-5.1c-1.7-1.8-5.1-5.6-6.9-7.5h-4.8l-0.2,1.1c0,0,0.2,0.3,0.4,0.8
			c0.3,0.5,0.3,0.7,0.3,0.9c0,0,0,16.2,0,16.2l4.4,0V45.9c0.9,1.2,2.5,3,3.5,4.1c2.1,2.3,5.3,5.8,7.7,8.5h4.3v-19L151.7,39.5z"/>
		<path class="st0" d="M200.1,39.5v11.6c0,1.3-0.3,2.1-0.9,2.7c-0.8,0.7-2.1,1.1-4,1.1c-1.9,0-3.3-0.4-4.1-1.1
			c-0.6-0.6-0.9-1.4-0.9-2.7V39.5h-5.5l-0.2,1.1c0,0,0.2,0.3,0.4,0.8c0.3,0.4,0.3,0.6,0.3,0.9c0,0,0,9,0,9c0,5,3.4,7.5,9.9,7.5h0.1
			c6.5,0,9.7-2.5,9.7-7.5V39.5H200.1z"/>
		<path class="st0" d="M174.3,39.5h-6.2c-1.9,3.9-5.1,11-8.2,19h5c0.4-1.1,0.8-2.2,1.2-3.3h10.1c0.4,1.1,0.8,2.2,1.2,3.3h5
			C179.4,50.5,176.2,43.4,174.3,39.5z M167.5,51.6c1.3-3.2,2.6-6.3,3.7-8.7c1.1,2.4,2.4,5.4,3.7,8.7H167.5z"/>
	</g>
	<rect x="276.8" y="6.2" class="st1" width="9.9" height="85.9"/>
	<g>
		<linearGradient id="SVGID_1_" gradientUnits="userSpaceOnUse" x1="37.6301" y1="90.4447" x2="37.6301" y2="7.8317">
			<stop  offset="0" style="stop-color:#E5E5E4"/>
			<stop  offset="0.6866" style="stop-color:#FFFFFF"/>
			<stop  offset="1" style="stop-color:#919191"/>
		</linearGradient>
		<path class="st2" d="M69.9,47.5c-1.5-3.1-4.9-9.8-8.4-16.1C56.6,22.5,49,9.8,48.2,8.7c-0.2-0.3-0.4-0.5-0.6-0.6
			C47.5,8,47.4,8,47.3,8c-0.2-0.1-0.6,0-1,0c-0.2,0-0.4,0-0.6,0c-1.6-0.1-4.9-0.1-8.2-0.1c-4,0-8.8,0.1-9.4,0.2
			c-0.3,0-0.4,0.1-0.6,0.2c-0.2,0.1-0.3,0.2-0.6,0.6c-0.7,1.1-8.4,13.8-13.4,22.7c-3.5,6.3-6.9,13-8.4,16.1
			c-0.4,0.8-0.4,1.4-0.4,1.6c0,0.4,0.1,1,0.4,1.6c1.5,3.1,4.9,9.8,8.4,16.1c4.9,8.9,12.6,21.6,13.4,22.7c0.1,0.2,0.2,0.3,0.3,0.4
			c0.2,0.2,0.3,0.3,0.5,0.4c0.2,0.1,0.6,0,0.9,0c0.2,0,0.4,0,0.6,0c2,0.1,5,0.1,8.2,0.1c4,0,8.6-0.1,9.3-0.2l0.1,0
			c0.3,0,0.4-0.1,0.5-0.1c0.2-0.1,0.3-0.2,0.6-0.6c0.8-1.1,8.4-13.7,13.3-22.6c3.5-6.3,6.9-13,8.4-16.1c0.4-0.8,0.4-1.5,0.4-1.7
			C70.4,48.6,70.2,48.2,69.9,47.5z M47.3,50.8c-3.3,7.4-5.6,11.9-9.1,18.6C38,69.8,37.9,70,37.6,70c-0.2,0-0.4-0.3-0.6-0.6
			c-3.5-6.6-5.8-11.2-9.1-18.6c-0.3-0.6-0.5-1.1-0.5-1.7c0-0.6,0.2-1,0.5-1.7c3.3-7.4,5.6-11.9,9.1-18.6c0.2-0.4,0.4-0.6,0.6-0.6
			c0,0,0,0,0,0c0,0,0,0,0,0c0,0,0,0,0,0c0.2,0,0.4,0.3,0.6,0.6c3.5,6.6,5.8,11.2,9.1,18.6c0.3,0.6,0.5,1.1,0.5,1.7
			C47.8,49.7,47.6,50.2,47.3,50.8z"/>
		<defs>
			<filter id="Adobe_OpacityMaskFilter" filterUnits="userSpaceOnUse" x="4.9" y="7.8" width="65.4" height="82.6">
				
					<feColorMatrix  type="matrix" values="-1 0 0 0 1  0 -1 0 0 1  0 0 -1 0 1  0 0 0 1 0" color-interpolation-filters="sRGB" result="source"/>
				<feFlood  style="flood-color:white;flood-opacity:1" result="back"/>
				<feBlend  in="source" in2="back" mode="normal"/>
			</filter>
		</defs>
		<mask maskUnits="userSpaceOnUse" x="4.9" y="7.8" width="65.4" height="82.6" id="SVGID_2_">
			<g class="st3">
				<linearGradient id="SVGID_3_" gradientUnits="userSpaceOnUse" x1="36.5924" y1="96.3372" x2="36.5924" y2="49.7728">
					<stop  offset="0.8545" style="stop-color:#FFFFFF"/>
					<stop  offset="1" style="stop-color:#000000"/>
				</linearGradient>
				<rect x="-5.4" y="49.8" class="st4" width="84" height="46.6"/>
			</g>
		</mask>
		
			<radialGradient id="SVGID_4_" cx="35.0724" cy="29.1377" r="41.3451" gradientTransform="matrix(0.9963 0 0 1 -1.5825 0)" gradientUnits="userSpaceOnUse">
			<stop  offset="0.401" style="stop-color:#FFFFFF"/>
			<stop  offset="1" style="stop-color:#919191"/>
		</radialGradient>
		<path class="st5" d="M69.9,47.5c-1.5-3.1-4.9-9.8-8.4-16.1C56.6,22.5,49,9.8,48.2,8.7c-0.2-0.3-0.4-0.5-0.6-0.6
			C47.5,8,47.4,8,47.3,8c-0.2-0.1-0.6,0-1,0c-0.2,0-0.4,0-0.6,0c-1.6-0.1-4.9-0.1-8.2-0.1c-4,0-8.8,0.1-9.4,0.2
			c-0.3,0-0.4,0.1-0.6,0.2c-0.2,0.1-0.3,0.2-0.6,0.6c-0.7,1.1-8.4,13.8-13.4,22.7c-3.5,6.3-6.9,13-8.4,16.1
			c-0.4,0.8-0.4,1.4-0.4,1.6c0,0.4,0.1,1,0.4,1.6c1.5,3.1,4.9,9.8,8.4,16.1c4.9,8.9,12.6,21.6,13.4,22.7c0.1,0.2,0.2,0.3,0.3,0.4
			c0.2,0.2,0.3,0.3,0.5,0.4c0.2,0.1,0.6,0,0.9,0c0.2,0,0.4,0,0.6,0c2,0.1,5,0.1,8.2,0.1c4,0,8.6-0.1,9.3-0.2l0.1,0
			c0.3,0,0.4-0.1,0.5-0.1c0.2-0.1,0.3-0.2,0.6-0.6c0.8-1.1,8.4-13.7,13.3-22.6c3.5-6.3,6.9-13,8.4-16.1c0.4-0.8,0.4-1.5,0.4-1.7
			C70.4,48.6,70.2,48.2,69.9,47.5z M47.3,50.8c-3.3,7.4-5.6,11.9-9.1,18.6C38,69.8,37.9,70,37.6,70c-0.2,0-0.4-0.3-0.6-0.6
			c-3.5-6.6-5.8-11.2-9.1-18.6c-0.3-0.6-0.5-1.1-0.5-1.7c0-0.6,0.2-1,0.5-1.7c3.3-7.4,5.6-11.9,9.1-18.6c0.2-0.4,0.4-0.6,0.6-0.6
			c0,0,0,0,0,0c0,0,0,0,0,0c0,0,0,0,0,0c0.2,0,0.4,0.3,0.6,0.6c3.5,6.6,5.8,11.2,9.1,18.6c0.3,0.6,0.5,1.1,0.5,1.7
			C47.8,49.7,47.6,50.2,47.3,50.8z"/>
		<g>
			<linearGradient id="SVGID_5_" gradientUnits="userSpaceOnUse" x1="21.2953" y1="90.0394" x2="21.2953" y2="49.3432">
				<stop  offset="1.042330e-02" style="stop-color:#E5E5E4"/>
				<stop  offset="0.3385" style="stop-color:#A7A6A6"/>
				<stop  offset="0.6941" style="stop-color:#313131"/>
				<stop  offset="0.8452" style="stop-color:#131313"/>
				<stop  offset="0.948" style="stop-color:#090A0A"/>
				<stop  offset="0.9595" style="stop-color:#0B0C0D"/>
				<stop  offset="0.9679" style="stop-color:#111214"/>
				<stop  offset="0.9753" style="stop-color:#1B1C1E"/>
				<stop  offset="0.9822" style="stop-color:#27282B"/>
				<stop  offset="0.9887" style="stop-color:#38393C"/>
				<stop  offset="0.9948" style="stop-color:#4E4F50"/>
				<stop  offset="1" style="stop-color:#676767"/>
			</linearGradient>
			<path class="st6" d="M25.5,51.8c0,0-1-1.8-1-2.5c0-0.1,0-0.1,0-0.2c0-0.2-0.1-0.1-0.2,0c-0.3,0.3-0.8,0.5-2,0.5
				c-1.1,0-10.2,0-14.6,0c-0.6,0-1.5,0-1.5,1c0,0.6,0.5,1.8,1.6,3.9C13.5,65.8,20,77.1,26.9,88.1c0,0,1.1,1.7,1.2,1.8
				c0.1,0.1,0.2,0.2,0.5,0.2c0,0,4.4-8,7.9-16.7C32.5,66.2,28.9,59,25.5,51.8z"/>
			<linearGradient id="SVGID_6_" gradientUnits="userSpaceOnUse" x1="28.5141" y1="90.1524" x2="28.5141" y2="90.1521">
				<stop  offset="1.042330e-02" style="stop-color:#E5E5E4"/>
				<stop  offset="0.3385" style="stop-color:#A7A6A6"/>
				<stop  offset="0.6941" style="stop-color:#313131"/>
				<stop  offset="0.8452" style="stop-color:#131313"/>
				<stop  offset="0.948" style="stop-color:#090A0A"/>
				<stop  offset="0.9595" style="stop-color:#0B0C0D"/>
				<stop  offset="0.9679" style="stop-color:#111214"/>
				<stop  offset="0.9753" style="stop-color:#1B1C1E"/>
				<stop  offset="0.9822" style="stop-color:#27282B"/>
				<stop  offset="0.9887" style="stop-color:#38393C"/>
				<stop  offset="0.9948" style="stop-color:#4E4F50"/>
				<stop  offset="1" style="stop-color:#676767"/>
			</linearGradient>
			<path class="st7" d="M28.5,90.2C28.5,90.2,28.5,90.2,28.5,90.2C28.5,90.2,28.5,90.2,28.5,90.2z"/>
		</g>
		<linearGradient id="SVGID_7_" gradientUnits="userSpaceOnUse" x1="49.345" y1="90.0376" x2="49.345" y2="49.306">
			<stop  offset="1.042330e-02" style="stop-color:#E5E5E4"/>
			<stop  offset="0.3385" style="stop-color:#A7A6A6"/>
			<stop  offset="0.6941" style="stop-color:#313131"/>
			<stop  offset="0.8452" style="stop-color:#131313"/>
			<stop  offset="0.9538" style="stop-color:#090A0A"/>
			<stop  offset="0.964" style="stop-color:#0B0C0D"/>
			<stop  offset="0.9715" style="stop-color:#111214"/>
			<stop  offset="0.9781" style="stop-color:#1B1C1E"/>
			<stop  offset="0.9842" style="stop-color:#27282B"/>
			<stop  offset="0.99" style="stop-color:#38393C"/>
			<stop  offset="0.9954" style="stop-color:#4E4F50"/>
			<stop  offset="1" style="stop-color:#676767"/>
		</linearGradient>
		<path class="st8" d="M69.5,49.2c-0.2,0.2-0.6,0.4-1.6,0.4c-0.3,0-8.5,0-12,0c-5.5,0-5-0.1-6.4,2.8c-0.6,1.3-1.3,2.8-2,4.1
			C42.8,66.5,31,86.8,29.5,89.3c-0.6,0.9-0.7,1-0.2,1c0,0,4,0.1,8.4,0.1c6.9,0,9.4-0.2,9.4-0.2c4-6.2,13.6-22.1,20.4-35.8
			c1.6-3.2,2.4-4.5,2.3-5.2C69.7,49.1,69.6,49.2,69.5,49.2z"/>
		<linearGradient id="SVGID_8_" gradientUnits="userSpaceOnUse" x1="35.8542" y1="48.8661" x2="35.8542" y2="7.8683">
			<stop  offset="0" style="stop-color:#313131"/>
			<stop  offset="7.212595e-03" style="stop-color:#272727"/>
			<stop  offset="1.748832e-02" style="stop-color:#1C1C1D"/>
			<stop  offset="2.821864e-02" style="stop-color:#161616"/>
			<stop  offset="4.003730e-02" style="stop-color:#131313"/>
			<stop  offset="0.1396" style="stop-color:#0E0E0E"/>
			<stop  offset="0.2521" style="stop-color:#000000"/>
		</linearGradient>
		<path class="st9" d="M46.7,8.1c-0.3,0-0.5,0.2-0.9,0.8c-3.4,5.3-15.1,27.4-19.9,37.7c-0.6,1.3-0.9,1.9-0.9,2.5l2.5,0c0,0,0,0,0,0
			c0-0.6,0.2-1,0.5-1.7c3.3-7.4,5.6-11.9,9.1-18.6c0.2-0.4,0.4-0.6,0.6-0.6c0,0,0,0,0,0l1-2.8C42,17,46.7,8.1,46.7,8.1z"/>
		<linearGradient id="SVGID_9_" gradientUnits="userSpaceOnUse" x1="43.9371" y1="49.1503" x2="43.9371" y2="25.4172">
			<stop  offset="0" style="stop-color:#757575"/>
			<stop  offset="0.1059" style="stop-color:#717171"/>
			<stop  offset="0.2369" style="stop-color:#666667"/>
			<stop  offset="0.3813" style="stop-color:#555656"/>
			<stop  offset="0.5353" style="stop-color:#404041"/>
			<stop  offset="0.6951" style="stop-color:#262627"/>
			<stop  offset="0.7954" style="stop-color:#131313"/>
			<stop  offset="0.9207" style="stop-color:#000000"/>
		</linearGradient>
		<path class="st10" d="M50.2,49.1c0-0.6-0.3-1.2-0.9-2.5c-3.3-7-6.8-13.9-10.8-21.3l-1,2.8c0,0,0,0,0,0c0,0,0,0,0,0
			c0.2,0,0.4,0.3,0.6,0.6c3.5,6.6,5.8,11.2,9.1,18.6c0.3,0.6,0.5,1.1,0.5,1.7c0,0,0,0,0,0H50.2z"/>
		<linearGradient id="SVGID_10_" gradientUnits="userSpaceOnUse" x1="31.3113" y1="72.9088" x2="31.3113" y2="49.1635">
			<stop  offset="0.3571" style="stop-color:#BFBEBF"/>
			<stop  offset="0.4856" style="stop-color:#B8B8B8"/>
			<stop  offset="0.6337" style="stop-color:#A6A6A6"/>
			<stop  offset="0.7917" style="stop-color:#8B8B8B"/>
			<stop  offset="0.9555" style="stop-color:#696969"/>
			<stop  offset="0.9631" style="stop-color:#676767"/>
			<stop  offset="1" style="stop-color:#313131"/>
		</linearGradient>
		<path class="st11" d="M37.6,70C37.6,70,37.6,70,37.6,70c-0.2,0-0.4-0.3-0.6-0.6c-3.5-6.6-5.8-11.2-9.1-18.6
			c-0.3-0.6-0.5-1.1-0.5-1.7c0,0,0,0,0,0l-2.5,0c0,0.6,0.3,1.2,0.9,2.5v0c3.3,7,6.8,13.9,10.8,21.3L37.6,70z"/>
		<linearGradient id="SVGID_11_" gradientUnits="userSpaceOnUse" x1="40.635" y1="64.8588" x2="19.0353" y2="55.1158">
			<stop  offset="1.320000e-02" style="stop-color:#F1F1F1;stop-opacity:0.8"/>
			<stop  offset="0.1096" style="stop-color:#EEEDED;stop-opacity:0"/>
		</linearGradient>
		<path class="st12" d="M37.6,70C37.6,70,37.6,70,37.6,70c-0.2,0-0.4-0.3-0.6-0.6c-3.5-6.6-5.8-11.2-9.1-18.6
			c-0.3-0.6-0.5-1.1-0.5-1.7c0,0,0,0,0,0l-2.5,0c0,0.6,0.3,1.2,0.9,2.5v0c3.3,7,6.8,13.9,10.8,21.3L37.6,70z"/>
		<linearGradient id="SVGID_12_" gradientUnits="userSpaceOnUse" x1="39.3801" y1="89.8929" x2="39.3801" y2="48.8873">
			<stop  offset="0" style="stop-color:#FFFFFF"/>
			<stop  offset="0.1993" style="stop-color:#FAFAFA"/>
			<stop  offset="0.4714" style="stop-color:#EAE9EA"/>
			<stop  offset="0.7839" style="stop-color:#D0D0D0"/>
			<stop  offset="0.9693" style="stop-color:#BFBEBF"/>
			<stop  offset="0.9913" style="stop-color:#757575"/>
		</linearGradient>
		<path class="st13" d="M28.5,90.2c0.3,0,0.6-0.3,1-0.9c0.1-0.2,0.2-0.4,0.4-0.7c2.6-4.4,14.9-27.1,19.5-36.9
			c0.6-1.3,0.9-1.9,0.9-2.5h-2.5c0,0,0,0,0,0c0,0.6-0.2,1-0.5,1.7c-3.3,7.4-5.6,11.9-9.1,18.6C38,69.8,37.9,70,37.6,70l-1,2.8
			C33.1,81.8,28.5,90.2,28.5,90.2z"/>
		<linearGradient id="SVGID_13_" gradientUnits="userSpaceOnUse" x1="15.3622" y1="91.5142" x2="15.3622" y2="49.1383">
			<stop  offset="0" style="stop-color:#676767"/>
			<stop  offset="3.358328e-02" style="stop-color:#656565"/>
			<stop  offset="0.3519" style="stop-color:#585858"/>
			<stop  offset="0.6662" style="stop-color:#505050"/>
			<stop  offset="0.9698" style="stop-color:#4D4D4D"/>
			<stop  offset="0.9706" style="stop-color:#4F4F4F"/>
			<stop  offset="0.9905" style="stop-color:#7A7979"/>
			<stop  offset="1" style="stop-color:#8C8C8C"/>
		</linearGradient>
		<path class="st14" d="M27.4,90c-0.1-0.1-0.2-0.2-0.3-0.4c-0.8-1.1-8.5-13.8-13.4-22.7c-3.5-6.3-6.9-13-8.4-16.1
			c-0.3-0.6-0.4-1.2-0.4-1.6l-1.6,0c0,0.5,0.1,1.3,0.6,2.3c1.1,2.5,4.3,8.8,8.4,16.2c4.5,8.1,12.6,21.6,13.5,22.9
			c0.4,0.5,0.7,0.8,1,1L27.4,90z"/>
		<linearGradient id="SVGID_14_" gradientUnits="userSpaceOnUse" x1="29.4944" y1="86.3896" x2="45.8133" y2="95.8114">
			<stop  offset="1.931200e-02" style="stop-color:#676767"/>
			<stop  offset="2.514284e-02" style="stop-color:#5D5D5D"/>
			<stop  offset="4.141225e-02" style="stop-color:#464646"/>
			<stop  offset="5.769631e-02" style="stop-color:#353536"/>
			<stop  offset="7.380687e-02" style="stop-color:#29292A"/>
			<stop  offset="8.966362e-02" style="stop-color:#222222"/>
			<stop  offset="0.105" style="stop-color:#202020"/>
		</linearGradient>
		<path class="st15" d="M26.8,91.5c0.4,0.3,0.8,0.3,1.3,0.4c1.2,0.1,6.5,0.2,9.5,0.2c3,0,8.7-0.1,9.5-0.2c0.4,0,0.7-0.1,1.1-0.2
			l-0.6-1.5c-0.1,0-0.2,0.1-0.5,0.1l-0.1,0c-0.7,0.1-5.4,0.2-9.3,0.2c-3.2,0-6.2-0.1-8.2-0.1c-0.2,0-0.4,0-0.6,0
			c-0.3,0-0.7,0.1-0.9,0c-0.2-0.1-0.3-0.2-0.5-0.4L26.8,91.5z"/>
		<linearGradient id="SVGID_15_" gradientUnits="userSpaceOnUse" x1="41.8461" y1="18.2777" x2="78.0178" y2="38.0811">
			<stop  offset="0" style="stop-color:#5B5A5A"/>
			<stop  offset="1" style="stop-color:#757575"/>
		</linearGradient>
		<path class="st16" d="M72,49.1c0-0.4-0.1-1.3-0.6-2.3c-1.2-2.5-5.1-10.2-8.4-16.2C58.5,22.6,50.4,9,49.5,7.8
			c-0.5-0.7-0.9-1-1.2-1.1l-0.6,1.5c0.2,0.1,0.3,0.3,0.6,0.6c0.8,1.1,8.5,13.8,13.4,22.7c3.5,6.3,6.9,13,8.4,16.1
			c0.3,0.6,0.4,1.1,0.4,1.5L72,49.1z"/>
		<linearGradient id="SVGID_16_" gradientUnits="userSpaceOnUse" x1="47.2424" y1="10.0531" x2="27.6492" y2="4.4348">
			<stop  offset="9.552040e-03" style="stop-color:#5B5A5A"/>
			<stop  offset="2.775183e-02" style="stop-color:#787777"/>
			<stop  offset="4.565967e-02" style="stop-color:#919090"/>
			<stop  offset="6.154520e-02" style="stop-color:#A1A0A0"/>
			<stop  offset="7.376030e-02" style="stop-color:#A7A6A6"/>
			<stop  offset="0.5011" style="stop-color:#BEBDBE"/>
			<stop  offset="1" style="stop-color:#BFBEBF"/>
		</linearGradient>
		<path class="st17" d="M27,6.6l0.6,1.5C27.8,8.1,27.9,8,28.2,8c0.6-0.1,5.4-0.2,9.4-0.2c3.2,0,6.5,0.1,8.2,0.1c0.2,0,0.4,0,0.6,0
			c0.3,0,0.8-0.1,1,0c0.1,0,0.2,0.1,0.3,0.2l0.6-1.5c-0.4-0.2-0.7-0.2-1.1-0.2c-1.3-0.1-6.7-0.2-9.5-0.2c-2.5,0-8.3,0.1-9.6,0.2
			C27.6,6.5,27.3,6.5,27,6.6z"/>
		<linearGradient id="SVGID_17_" gradientUnits="userSpaceOnUse" x1="-2.1872" y1="34.8542" x2="32.7532" y2="21.4418">
			<stop  offset="0" style="stop-color:#8C8C8C"/>
			<stop  offset="0.9868" style="stop-color:#757575"/>
			<stop  offset="1" style="stop-color:#BFBEBF"/>
		</linearGradient>
		<path class="st18" d="M27,6.6c-0.5,0.2-0.8,0.6-1.3,1.2c-0.9,1.2-9.1,14.9-13.4,22.8c-3.1,5.5-8,15.1-8.4,16.2
			c-0.5,1.1-0.6,1.8-0.6,2.3l1.6,0c0-0.3,0.1-0.8,0.4-1.6c1.5-3.1,4.9-9.8,8.4-16.1c4.9-8.9,12.6-21.6,13.4-22.7
			c0.3-0.4,0.4-0.5,0.6-0.6L27,6.6z"/>
		<linearGradient id="SVGID_18_" gradientUnits="userSpaceOnUse" x1="59.7721" y1="91.6449" x2="59.7721" y2="49.0356">
			<stop  offset="1.902380e-02" style="stop-color:#202020"/>
			<stop  offset="0.1679" style="stop-color:#282828"/>
			<stop  offset="0.4404" style="stop-color:#343434"/>
			<stop  offset="0.7098" style="stop-color:#3B3B3B"/>
			<stop  offset="0.9698" style="stop-color:#3D3E3E"/>
			<stop  offset="0.9712" style="stop-color:#404040"/>
			<stop  offset="0.9907" style="stop-color:#656565"/>
			<stop  offset="1" style="stop-color:#757575"/>
		</linearGradient>
		<path class="st19" d="M48.2,91.6c0.4-0.2,0.8-0.5,1.3-1.1c0.9-1.2,9.6-15.8,13.5-22.9c3.9-7.1,8-15.2,8.4-16.2
			c0.6-1.2,0.6-1.9,0.6-2.3L70.4,49c0,0.3-0.1,0.9-0.4,1.7c-1.5,3.1-4.9,9.8-8.4,16.1C56.6,75.8,49,88.4,48.2,89.5
			c-0.3,0.5-0.5,0.6-0.6,0.6c0,0,0,0,0,0L48.2,91.6z"/>
		<path class="st20" d="M46.4,8C46.4,8,46.4,8,46.4,8C46.4,8,46,8.3,45,8.3c-1.2,0-3.8-0.1-5.9-0.1c-3.8,0-8.3,0-10.5,0.1
			c-1.1,0.1-1.2,0.2-1.9,0.9l0,0l0.4-0.6c0.3-0.4,0.4-0.5,0.6-0.6C27.8,8.1,27.9,8,28.2,8c0.6-0.1,5.4-0.2,9.4-0.2
			c3.2,0,6.5,0.1,8.2,0.1C46,8,46.2,8,46.4,8"/>
		<g>
			<defs>
				<path id="SVGID_19_" d="M72,49.1c0-0.4-0.1-1.2-0.6-2.3c-1.2-2.6-5.1-10.2-8.4-16.2c-0.3-0.5-0.5-0.9-0.8-1.4
					c-3.6-2.2-7.7-3.4-12.2-3.4c-4.4,0-8.6,1.2-12.1,3.4c0.3,0.6,2.7,5.2,4.9,9.7c2.1,4.2,3.9,8.3,4.1,8.8c0.3,0.6,0.4,1,0.4,1.5
					c0,0.5-0.2,0.8-0.4,1.4l0,0c0,0-1.9,4.3-4.1,8.8c-2,4-4.1,8.1-4.9,9.7l0,0.1c-0.1,0.2-0.1,0.3-0.2,0.3c0,0-0.1-0.1-0.2-0.3
					c0,0-0.1-0.1-0.1-0.2c-2.3-4.4-3.9-7.6-4.8-9.5c-2.1-4.3-4-8.5-4.1-8.8l0,0c-0.2-0.6-0.4-1-0.4-1.5c0-0.5,0.2-1,0.4-1.5
					c0,0,0.1-0.1,0.1-0.2c1.3-3,2.7-5.9,4-8.5c1.9-3.8,4-8,4.7-9.3c-6.5,4.2-10.8,11.6-10.8,19.9c0,13.1,10.6,23.7,23.6,23.7
					c4.2,0,8.1-1.1,11.6-3c0.5-0.9,1-1.8,1.4-2.5c3.8-6.9,7.9-15.1,8.4-16.2C71.9,50.3,72,49.6,72,49.1z"/>
			</defs>
			<clipPath id="SVGID_20_">
				<use xlink:href="#SVGID_19_"  style="overflow:visible;"/>
			</clipPath>
			<g class="st21">
				<defs>
					<filter id="Adobe_OpacityMaskFilter_1_" filterUnits="userSpaceOnUse" x="26.4" y="25.8" width="47.4" height="47.4">
						<feColorMatrix  type="matrix" values="1 0 0 0 0  0 1 0 0 0  0 0 1 0 0  0 0 0 1 0"/>
					</filter>
				</defs>
				<mask maskUnits="userSpaceOnUse" x="26.4" y="25.8" width="47.4" height="47.4" id="SVGID_21_">
					<g id="XMLID_1_" class="st22">
						<radialGradient id="SVGID_22_" cx="50.2203" cy="49.503" r="7.0671" gradientUnits="userSpaceOnUse">
							<stop  offset="0.1664" style="stop-color:#FFFFFF"/>
							<stop  offset="0.1794" style="stop-color:#EEEDEE"/>
							<stop  offset="0.2381" style="stop-color:#ABA8AD"/>
							<stop  offset="0.3013" style="stop-color:#77747A"/>
							<stop  offset="0.3679" style="stop-color:#514F54"/>
							<stop  offset="0.4385" style="stop-color:#343339"/>
							<stop  offset="0.5144" style="stop-color:#202025"/>
							<stop  offset="0.5977" style="stop-color:#111216"/>
							<stop  offset="0.692" style="stop-color:#06070A"/>
							<stop  offset="0.8068" style="stop-color:#020304"/>
							<stop  offset="1" style="stop-color:#020203"/>
						</radialGradient>
						<path class="st23" d="M57.3,49.5c0-3.9-3.2-7.1-7.1-7.1c-3.9,0-7.1,3.2-7.1,7.1c0,3.9,3.2,7.1,7.1,7.1
							C54.1,56.6,57.3,53.4,57.3,49.5z"/>
					</g>
				</mask>
				<radialGradient id="SVGID_23_" cx="50.1468" cy="49.503" r="23.702" gradientUnits="userSpaceOnUse">
					<stop  offset="0" style="stop-color:#FFFFFF"/>
					<stop  offset="0.5897" style="stop-color:#FFFFFF;stop-opacity:0"/>
				</radialGradient>
				<circle class="st24" cx="50.1" cy="49.5" r="23.7"/>
			</g>
		</g>
		<path class="st25" d="M47.3,47.5c-0.1-0.3-2-4.5-4.1-8.8c-2.3-4.7-4.9-9.6-5-9.8c-0.2-0.4-0.4-0.6-0.6-0.6c-0.2,0-0.4,0.2-0.6,0.6
			c-0.1,0.2-2.7,5.2-5,9.8c-2.2,4.5-4,8.5-4.1,8.8c-0.2,0.5-0.5,1.1-0.5,1.7c0,0.6,0.2,1.1,0.5,1.7c0.1,0.3,2,4.5,4.1,8.8
			c2.3,4.7,4.9,9.6,5,9.8c0.2,0.4,0.4,0.6,0.6,0.6c0.2,0,0.4-0.3,0.6-0.6c0.1-0.2,2.7-5.1,5-9.8c2.1-4.3,4-8.5,4.1-8.8
			c0.3-0.7,0.5-1.1,0.5-1.7C47.8,48.6,47.6,48.1,47.3,47.5z M46.9,50.6L46.9,50.6c0,0.1-1.9,4.3-4.1,8.8c-2,4-4.1,8.1-4.9,9.7l0,0.1
			c-0.1,0.2-0.1,0.3-0.2,0.3c0,0-0.1-0.1-0.2-0.3c0,0-0.1-0.1-0.1-0.2c-2.3-4.4-3.9-7.6-4.8-9.5c-2.1-4.3-4-8.5-4.1-8.8l0,0
			c-0.2-0.6-0.4-1-0.4-1.5c0-0.5,0.2-1,0.4-1.5c0,0,0.1-0.1,0.1-0.2c1.3-3,2.7-5.9,4-8.5c2.3-4.7,5-9.7,5-9.8
			c0.1-0.1,0.1-0.3,0.2-0.3s0.1,0.1,0.2,0.3c0,0,2.6,5,5,9.8c2.1,4.2,3.9,8.3,4.1,8.8c0.3,0.6,0.4,1,0.4,1.5
			C47.3,49.6,47.1,50,46.9,50.6z"/>
		<path class="st25" d="M71.4,46.8c-1.2-2.6-5.1-10.2-8.4-16.2C58.4,22.4,50.4,9,49.5,7.8c-0.9-1.2-1.4-1.3-2.2-1.4l-0.1,0
			c-1.2-0.1-6.4-0.2-9.5-0.2c-2.7,0-8.3,0.1-9.6,0.2c-1.2,0.1-1.6,0.5-2.3,1.4c-1,1.3-9.2,15.1-13.4,22.8c-3.1,5.6-8,15.2-8.4,16.2
			c-0.4,0.9-0.6,1.7-0.6,2.3c0,0.7,0.2,1.4,0.6,2.3c1,2.2,4.1,8.4,8.4,16.2c4.5,8.2,12.6,21.7,13.5,22.9c0.9,1.2,1.5,1.3,2.3,1.4
			c1.2,0.1,6.6,0.2,9.5,0.2c3.1,0,8.7-0.1,9.5-0.2c0.8-0.1,1.4-0.1,2.3-1.4C50.3,89.4,59,74.8,63,67.7c3.8-6.9,7.9-15.1,8.4-16.2
			c0.5-1.2,0.6-1.8,0.6-2.3C72,48.7,71.9,47.9,71.4,46.8z M70.9,51.3c-0.5,1.1-4.6,9.3-8.4,16.2c-3.9,7.2-12.6,21.7-13.4,22.8
			c-0.8,1.1-1.3,1.1-2,1.2c-0.8,0.1-6.4,0.2-9.5,0.2c-2.9,0-8.2-0.1-9.5-0.2c-0.8-0.1-1.2-0.1-2-1.2c-0.9-1.2-9-14.6-13.4-22.8
			c-4.3-7.8-7.4-14-8.4-16.2c-0.4-0.8-0.6-1.5-0.6-2.1c0-0.6,0.2-1.3,0.6-2.1c0.5-1,5.3-10.6,8.4-16.2C17,23.2,25.1,9.4,26.1,8.1
			c0.7-0.9,0.9-1.1,2-1.2c1.3-0.1,6.9-0.2,9.6-0.2c3.1,0,8.2,0.1,9.4,0.2l0.1,0C48,7,48.3,7,49.1,8C50,9.3,58,22.7,62.5,30.9
			c3.3,6,7.2,13.6,8.4,16.2c0.5,1,0.6,1.8,0.6,2.1C71.5,49.6,71.4,50.2,70.9,51.3z"/>
	</g>
	<g>
		<path class="st0" d="M94.7,67.7c3,0,4.3,1.1,4.3,3.7c0,2.6-1.3,3.7-4.3,3.7h-3.3v4.7h-1.4v-11c0-0.1-0.1-0.2-0.2-0.2l-0.5-0.2
			l0.1-0.7H94.7z M91.3,74h3.2c2.1,0,2.9-0.7,2.9-2.5c0-1.8-0.8-2.5-2.9-2.5h-3.2V74z"/>
		<path class="st0" d="M106.1,79c-0.5,0.8-1.5,1.1-3,1.1c-2.3,0-3.3-0.8-3.3-2.6c0-1.8,1.1-2.6,3.5-2.6c0.9,0,1.8,0.1,2.6,0.4v-1.2
			c0-1.5-0.8-2.1-2.6-2.1c-0.9,0-1.8,0.1-2.7,0.4v-1.2c0.9-0.3,1.8-0.4,2.9-0.4c2.7,0,3.8,1,3.8,3.3v4.4c0,0.1,0,0.2,0.1,0.3
			l0.5,0.2l-0.1,0.7h-1.5c-0.1,0-0.1,0-0.2-0.1L106.1,79z M105.9,76.3c-0.7-0.3-1.5-0.4-2.3-0.4c-1.6,0-2.3,0.4-2.3,1.6
			c0,1.1,0.7,1.6,2.2,1.6c1.7,0,2.5-0.6,2.5-1.9V76.3z"/>
		<path class="st0" d="M113,70.9c1,0,1.9,0.1,2.8,0.4l-0.2,1.1c-0.8-0.3-1.6-0.4-2.5-0.4c-1.5,0-2.2,0.5-2.2,1.4
			c0,2.1,5.3,0.5,5.3,4c0,1.7-1.3,2.7-3.5,2.7c-1.1,0-2.1-0.1-3.1-0.4v-1.2c1,0.3,1.9,0.5,3,0.5c1.5,0,2.2-0.6,2.2-1.5
			c0-2.4-5.3-0.6-5.3-4C109.5,71.7,110.8,70.9,113,70.9z"/>
		<path class="st0" d="M121.3,70.9c1,0,1.9,0.1,2.8,0.4l-0.2,1.1c-0.8-0.3-1.6-0.4-2.5-0.4c-1.5,0-2.2,0.5-2.2,1.4
			c0,2.1,5.3,0.5,5.3,4c0,1.7-1.3,2.7-3.5,2.7c-1.1,0-2.1-0.1-3.1-0.4v-1.2c1,0.3,1.9,0.5,3,0.5c1.5,0,2.2-0.6,2.2-1.5
			c0-2.4-5.3-0.6-5.3-4C117.8,71.7,119.1,70.9,121.3,70.9z"/>
		<path class="st0" d="M126.2,71.1h1.8c0.1,0,0.2,0,0.2,0.2v8.6h-1.4v-7.5c0-0.1,0-0.2-0.1-0.3l-0.5-0.2L126.2,71.1z M127.5,67.5
			c0.6,0,0.9,0.3,0.9,0.9c0,0.6-0.3,0.9-0.9,0.9c-0.7,0-0.9-0.3-0.9-0.9C126.5,67.8,126.8,67.5,127.5,67.5z"/>
		<path class="st0" d="M134.7,70.9c3,0,4.3,1.4,4.3,4.6c0,3.2-1.3,4.6-4.3,4.6c-3,0-4.3-1.4-4.3-4.6
			C130.4,72.2,131.7,70.9,134.7,70.9z M134.7,78.9c2,0,2.8-1,2.8-3.4c0-2.5-0.8-3.4-2.8-3.4c-2,0-2.8,1-2.8,3.4
			C131.9,77.9,132.7,78.9,134.7,78.9z"/>
		<path class="st0" d="M148.7,78.6c0,0.1,0,0.2,0.1,0.3l0.5,0.2l-0.1,0.7h-1.8c-0.1,0-0.2,0-0.2-0.2v-5.3c0-1.7-0.6-2.3-2.2-2.3
			c-1.1,0-2.2,0.4-2.6,0.6v7.1h-1.4v-7.5c0-0.1,0-0.2-0.1-0.3l-0.5-0.2l0.1-0.7h1.8c0.1,0,0.2,0,0.2,0.2v0.6c0.6-0.6,1.6-1,2.8-1
			c2.4,0,3.4,1,3.4,3.5V78.6z"/>
		<path class="st0" d="M157.7,71.1h2.6v1.1h-2.6v7.6h-1.4v-7.4c0-0.2,0-0.2-0.2-0.3l-1-0.3l0.1-0.8h1.1v-1.2c0-2.1,0.9-3,3.1-3
			c0.7,0,1.3,0.1,1.6,0.2l-0.2,1.1c-0.4-0.1-0.8-0.2-1.2-0.2c-1.3,0-1.8,0.5-1.8,1.8V71.1z"/>
		<path class="st0" d="M165.5,70.9c3,0,4.3,1.4,4.3,4.6c0,3.2-1.3,4.6-4.3,4.6c-3,0-4.3-1.4-4.3-4.6
			C161.2,72.2,162.5,70.9,165.5,70.9z M165.5,78.9c2,0,2.8-1,2.8-3.4c0-2.5-0.8-3.4-2.8-3.4c-2,0-2.8,1-2.8,3.4
			C162.7,77.9,163.5,78.9,165.5,78.9z"/>
		<path class="st0" d="M171.9,72.3c0-0.1,0-0.2-0.1-0.3l-0.5-0.2l0.1-0.7h1.8c0.1,0,0.2,0,0.2,0.2v0.9c0.7-0.8,1.6-1.3,2.8-1.3
			c0.3,0,0.6,0,0.8,0.1l-0.3,1.3c-0.2-0.1-0.5-0.1-0.8-0.1c-1.3,0-2,0.4-2.6,1v6.8h-1.4V72.3z"/>
		<path class="st0" d="M183.6,78.6c0,0.1,0,0.2,0.1,0.3l0.5,0.2l-0.1,0.7h-1.8c-0.1,0-0.2,0-0.2-0.2V68.4c0-0.1,0-0.2-0.1-0.3
			l-0.5-0.2l0.1-0.7h1.8c0.1,0,0.2,0,0.2,0.2V78.6z"/>
		<path class="st0" d="M186.4,71.1h1.8c0.1,0,0.2,0,0.2,0.2v8.6h-1.4v-7.5c0-0.1,0-0.2-0.1-0.3l-0.5-0.2L186.4,71.1z M187.6,67.5
			c0.6,0,0.9,0.3,0.9,0.9c0,0.6-0.3,0.9-0.9,0.9c-0.7,0-0.9-0.3-0.9-0.9C186.6,67.8,186.9,67.5,187.6,67.5z"/>
		<path class="st0" d="M193.2,71.1h2.6v1.1h-2.6v7.6h-1.4v-7.4c0-0.2,0-0.2-0.2-0.3l-1-0.3l0.1-0.8h1.1v-1.2c0-2.1,0.9-3,3.1-3
			c0.7,0,1.3,0.1,1.6,0.2l-0.2,1.1c-0.4-0.1-0.8-0.2-1.2-0.2c-1.3,0-1.8,0.5-1.8,1.8V71.1z"/>
		<path class="st0" d="M200.9,70.9c2.7,0,3.8,1.3,3.8,4.5c0,0.2,0,0.4,0,0.6h-6.5c0.1,2.2,1,3,3.4,3c0.9,0,1.9-0.1,2.8-0.4v1.2
			c-0.9,0.3-1.8,0.4-2.9,0.4c-3.3,0-4.7-1.4-4.7-4.6C196.7,72.2,197.9,70.9,200.9,70.9z M198.1,74.9h5.1c0-2.1-0.7-3-2.4-3
			C199,71.9,198.2,72.8,198.1,74.9z"/>
	</g>
</g>
</svg>
